<svg xmlns="http://www.w3.org/2000/svg" width="40" height="40" viewBox="0 0 40 40" fill="none">
  <path d="M36.6666 3.33325H3.33329C1.49996 3.33325 0.0166626 4.83325 0.0166626 6.66659L0 33.3333C0 35.1666 1.49996 36.6666 3.33329 36.6666H36.6666C38.5 36.6666 40 35.1666 40 33.3333V6.66659C40 4.83325 38.5 3.33325 36.6666 3.33325ZM36.6666 33.3333H3.33329V16.6666H36.6666V33.3333ZM36.6666 9.99992H3.33329V6.66659H36.6666V9.99992ZM21.6666 26.6666H31.6666V29.9999H21.6666V26.6666ZM13.3333 26.6666H18.3333V29.9999H13.3333V26.6666ZM5 26.6666H10V29.9999H5V26.6666Z" fill="#007B87"/>
</svg>
