<svg width="160" height="160" viewBox="0 0 160 160" fill="none" xmlns="http://www.w3.org/2000/svg">
<rect width="160" height="160" rx="80" fill="#007B87"/>
<path d="M71.1892 78.3641C70.9487 78.1289 70.6225 77.9967 70.2824 77.9967C69.9423 77.9967 69.6161 78.1289 69.3756 78.3641C69.1351 78.5993 69 78.9183 69 79.251C69 79.5837 69.1351 79.9027 69.3756 80.1379C77.8051 88.3825 77.2176 87.9953 77.9456 87.9953C78.6736 87.9953 77.8179 88.6323 91.6244 75.1412C91.8649 74.906 92 74.5869 92 74.2543C92 73.9216 91.8649 73.6026 91.6244 73.3674C91.3839 73.1321 91.0577 73 90.7176 73C90.3775 73 90.0513 73.1321 89.8108 73.3674L77.9456 84.9847L71.1892 78.3641Z" fill="white"/>
<path d="M107.087 52.5338C78.5126 44.4192 80.6625 44.9436 80.1625 45.0434L53.9133 52.5338C53.643 52.6093 53.4059 52.7735 53.2404 53C53.0749 53.2265 52.9905 53.502 53.0009 53.7822V78.9499C53.0145 87.0792 55.67 94.9845 60.5681 101.477C65.4662 107.97 72.3423 112.699 80.1625 114.954C80.3832 115.015 80.6168 115.015 80.8375 114.954C88.6577 112.699 95.5338 107.97 100.432 101.477C105.33 94.9845 107.986 87.0792 107.999 78.9499V53.7822C108.01 53.502 107.925 53.2265 107.76 53C107.594 52.7735 107.357 52.6093 107.087 52.5338ZM105.499 78.9499C105.485 86.4751 103.047 93.796 98.5448 99.8302C94.0428 105.864 87.716 110.291 80.5 112.457C73.2922 110.294 66.9713 105.874 62.4701 99.8503C57.9688 93.8261 55.5255 86.5165 55.5008 78.9998V54.7185L80.5 47.5402L105.499 54.6686V78.9499Z" fill="white"/>
<path d="M80.1621 50.0602L58.9125 56.1802C58.6546 56.253 58.4267 56.4073 58.2624 56.6204C58.0981 56.8335 58.0061 57.0942 58 57.3639V78.9727C58.0086 85.8151 60.1449 92.4828 64.1087 98.039C68.0726 103.595 73.6648 107.761 80.0996 109.95C82.5995 110.794 102.999 100.896 102.999 78.9727V57.3639C103.01 57.0813 102.925 56.8033 102.76 56.5749C102.594 56.3465 102.357 56.1808 102.087 56.1047C78.8621 49.4936 80.6496 49.9217 80.1621 50.0602ZM100.499 58.3335V78.9727C100.5 85.2171 98.577 91.3077 94.9945 96.4034C91.4119 101.499 86.3471 105.348 80.4996 107.419C74.6521 105.348 69.5872 101.499 66.0047 96.4034C62.4221 91.3077 60.4986 85.2171 60.5 78.9727V58.3335L80.4996 52.5787L100.499 58.3335Z" fill="white"/>
</svg>
