<svg xmlns="http://www.w3.org/2000/svg" width="40" height="40" viewBox="0 0 40 40" fill="none">
  <path d="M35 11.6667H28.3333V8.33333C28.3333 6.5 26.8333 5 25 5H15C13.1667 5 11.6667 6.5 11.6667 8.33333V11.6667H5C3.16667 11.6667 1.66667 13.1667 1.66667 15V31.6667C1.66667 33.5 3.16667 35 5 35H35C36.8333 35 38.3333 33.5 38.3333 31.6667V15C38.3333 13.1667 36.8333 11.6667 35 11.6667ZM15 8.33333H25V11.6667H15V8.33333ZM35 31.6667H5V26.6667H15V28.3333H25V26.6667H35V31.6667ZM35 21.6667H25V20H15V21.6667H5V15H35V21.6667Z" fill="#007B87"/>
</svg>
