<svg width="22" height="16" viewBox="0 0 22 16" fill="none" xmlns="http://www.w3.org/2000/svg">
<path fill-rule="evenodd" clip-rule="evenodd" d="M20.6642 2.82152L7.97233 15.5134C7.81851 15.6681 7.63556 15.7908 7.43404 15.8743C7.23253 15.9578 7.01646 16.0005 6.79832 16C6.58162 16.0015 6.36685 15.9591 6.16692 15.8755C5.96698 15.7919 5.78602 15.6688 5.6349 15.5134L0.484097 10.4684C0.174135 10.1584 -3.26598e-09 9.73804 0 9.29969C3.26598e-09 8.86133 0.174135 8.44094 0.484097 8.13097C0.794059 7.82101 1.21446 7.64688 1.65281 7.64688C2.09116 7.64688 2.51156 7.82101 2.82152 8.13097L6.74544 12.0655L18.3268 0.484097C18.6368 0.174135 19.0572 0 19.4955 0C19.9339 0 20.3543 0.174135 20.6642 0.484097C20.9742 0.794059 21.1483 1.21446 21.1483 1.65281C21.1483 2.09116 20.9742 2.51156 20.6642 2.82152Z" fill="#007B87"/>
</svg>
