<svg width="160" height="160" viewBox="0 0 160 160" fill="none" xmlns="http://www.w3.org/2000/svg">
<rect width="160" height="160" rx="80" fill="#007B87"/>
<path d="M48.3933 49C47.6238 49 47 49.6238 47 50.3933V68.713C47 69.4825 47.6238 70.1063 48.3933 70.1063C49.1628 70.1063 49.7865 69.4825 49.7865 68.713V51.7865H89.4944V68.713C89.4944 69.4825 90.1182 70.1063 90.8877 70.1063C91.6572 70.1063 92.2809 69.4825 92.2809 68.713V50.3933C92.2809 49.6238 91.6572 49 90.8877 49H48.3933Z" fill="white"/>
<path fill-rule="evenodd" clip-rule="evenodd" d="M94.7978 50.9775C94.1587 50.5489 93.2932 50.7196 92.8647 51.3586C92.4361 51.9977 92.6068 52.8632 93.2459 53.2918L122.235 72.7318V99.5054H95.4151C94.6456 99.5054 94.0218 100.129 94.0218 100.899C94.0218 101.668 94.6456 102.292 95.4151 102.292H109.696V105.427C109.696 106.197 110.32 106.82 111.089 106.82H119.449C120.219 106.82 120.842 106.197 120.842 105.427V102.292H123.629C124.398 102.292 125.022 101.668 125.022 100.899V72.7318C125.022 71.8028 124.559 70.9348 123.787 70.4175L94.7978 50.9775ZM118.056 102.292H112.483V104.034H118.056V102.292Z" fill="white"/>
<path d="M64.2692 88.708C63.4998 88.708 62.876 89.3318 62.876 90.1013V99.1574C62.876 99.9269 63.4998 100.551 64.2692 100.551C65.0387 100.551 65.6625 99.9269 65.6625 99.1574V91.4945H72.92V99.1574C72.92 99.9269 73.5437 100.551 74.3132 100.551C75.0827 100.551 75.7065 99.9269 75.7065 99.1574V90.1013C75.7065 89.3318 75.0827 88.708 74.3132 88.708H64.2692Z" fill="white"/>
<path d="M54.6633 95.1768C53.8938 95.1768 53.27 95.8005 53.27 96.57C53.27 97.3395 53.8938 97.9633 54.6633 97.9633H59.0302C59.7997 97.9633 60.4235 97.3395 60.4235 96.57C60.4235 95.8005 59.7997 95.1768 59.0302 95.1768H54.6633Z" fill="white"/>
<path d="M79.1174 95.1768C78.3479 95.1768 77.7241 95.8005 77.7241 96.57C77.7241 97.3395 78.3479 97.9633 79.1174 97.9633H83.921C84.6905 97.9633 85.3142 97.3395 85.3142 96.57C85.3142 95.8005 84.6905 95.1768 83.921 95.1768H79.1174Z" fill="white"/>
<path fill-rule="evenodd" clip-rule="evenodd" d="M60.2365 71.9888C59.467 71.9888 58.8433 72.6125 58.8433 73.382V81.7416C58.8433 82.5111 59.467 83.1348 60.2365 83.1348H78.3489C79.1184 83.1348 79.7421 82.5111 79.7421 81.7416V73.382C79.7421 72.6125 79.1184 71.9888 78.3489 71.9888H60.2365ZM61.6298 80.3483V74.7753H76.9556V80.3483H61.6298Z" fill="white"/>
<path fill-rule="evenodd" clip-rule="evenodd" d="M49.7865 73.0208C49.7865 72.2513 49.1628 71.6275 48.3933 71.6275C47.6238 71.6275 47 72.2513 47 73.0208V79.9126C47 80.5421 47.4221 81.0934 48.0297 81.2576L52.6017 82.4935L49.332 87.7962C49.1965 88.016 49.1247 88.2691 49.1247 88.5275V94.4567H48.3933C47.6238 94.4567 47 95.0805 47 95.85V104.034C47 104.804 47.6238 105.427 48.3933 105.427H49.7865V109.607C49.7865 110.377 50.4103 111 51.1798 111H61.1248C61.8942 111 62.518 110.377 62.518 109.607V105.427H77.4595V109.607C77.4595 110.377 78.0833 111 78.8528 111H88.7978C89.5673 111 90.191 110.377 90.191 109.607V105.427H90.8877C91.6572 105.427 92.2809 104.804 92.2809 104.034V95.85C92.2809 95.0805 91.6572 94.4567 90.8877 94.4567H89.7312V88.5275C89.7312 88.2691 89.6595 88.016 89.5239 87.7962L86.2707 82.5199L91.2299 81.2632C91.848 81.1065 92.2809 80.5503 92.2809 79.9126V73.0208C92.2809 72.2513 91.6572 71.6275 90.8877 71.6275C90.1182 71.6275 89.4944 72.2513 89.4944 73.0208V78.8284L85.4818 79.8452V56.6633C85.4818 55.8938 84.858 55.27 84.0886 55.27C83.3191 55.27 82.6953 55.8938 82.6953 56.6633V64.2206L80.4796 63.0115C79.456 62.453 78.3087 62.1603 77.1427 62.1603H60.7928C59.3487 62.1603 57.9401 62.6091 56.7622 63.4448L56.1607 63.8715V56.6633C56.1607 55.8938 55.5369 55.27 54.7674 55.27C53.9979 55.27 53.3742 55.8938 53.3742 56.6633V79.8157L49.7865 78.846V73.0208ZM52.573 108.214V105.427H59.7315V108.214H52.573ZM80.246 108.214V105.427H87.4045V108.214H80.246ZM82.6953 67.395V81.6406C82.6953 81.8989 82.7671 82.1521 82.9027 82.372L86.9447 88.926V95.8518C86.9447 96.6213 87.5685 97.2451 88.338 97.2451H89.4944V102.641H49.7865V97.2451H50.518C51.2875 97.2451 51.9112 96.6213 51.9112 95.8518V88.926L55.9533 82.372C56.0889 82.1521 56.1607 81.8989 56.1607 81.6406V67.2879L58.3745 65.7175C59.0812 65.2161 59.9263 64.9468 60.7928 64.9468H77.1427C77.8423 64.9468 78.5307 65.1224 79.1448 65.4575L82.6953 67.395Z" fill="white"/>
</svg>
