<svg width="72" height="72" viewBox="0 0 72 72" fill="none" xmlns="http://www.w3.org/2000/svg">
<path fill-rule="evenodd" clip-rule="evenodd" d="M35.9758 47.4746C36.5369 47.4746 36.994 47.9313 36.994 48.4928V56.2925C37.8388 55.6865 38.8488 55.3535 39.9095 55.3419C40.1811 55.3419 40.4372 55.4478 40.6296 55.6401C40.8219 55.8324 40.9272 56.0881 40.9272 56.3597C40.9272 56.9212 40.471 57.3779 39.9095 57.3779C37.9577 57.3779 36.8984 59.4172 36.8964 59.4196L36.8911 59.4307C36.708 59.7912 36.3711 60 35.985 60C35.48 60 34.9581 59.6182 34.9581 58.9794V48.4928C34.9581 47.9313 35.4148 47.4746 35.9758 47.4746ZM43.843 54.0403C45.1275 54.0403 46.1723 55.0851 46.1723 56.3696C46.1723 57.6541 45.1275 58.6989 43.843 58.6989C42.559 58.6989 41.5142 57.6541 41.5142 56.3696C41.5142 55.0851 42.559 54.0403 43.843 54.0403ZM43.843 55.4355C43.3283 55.4355 42.9089 55.8545 42.9089 56.3696C42.9089 56.8848 43.3283 57.3037 43.843 57.3037C44.3577 57.3037 44.7776 56.8848 44.7776 56.3696C44.7776 55.8545 44.3577 55.4355 43.843 55.4355ZM30.731 43.541C31.2925 43.541 31.7487 43.9976 31.7487 44.5587V49.8025C31.7487 50.4404 31.2273 50.8212 30.7228 50.8212C30.3343 50.8212 29.9965 50.6109 29.8201 50.2577L29.8027 50.2224C29.6848 50.0083 28.6303 48.1995 26.7973 48.1995C26.2358 48.1995 25.7796 47.7428 25.7796 47.1813C25.7796 46.6202 26.2358 46.1636 26.8012 46.1636C27.859 46.1752 28.8685 46.5081 29.7133 47.1141V44.5587C29.7133 43.9976 30.1699 43.541 30.731 43.541ZM42.5318 44.8524C43.0929 44.8524 43.55 45.3086 43.55 45.8706V47.114C44.3948 46.508 45.4048 46.175 46.4655 46.1634C46.7371 46.1634 46.9932 46.2693 47.1855 46.4616C47.3779 46.6539 47.4832 46.9096 47.4832 47.1812C47.4832 47.7432 47.027 48.1994 46.4655 48.1994C44.5136 48.1994 43.4544 50.2387 43.4524 50.2411L43.4471 50.2522C43.264 50.6127 42.9271 50.8215 42.541 50.8215C42.036 50.8215 41.5141 50.4397 41.5141 49.8009V45.8706C41.5141 45.3086 41.9708 44.8524 42.5318 44.8524ZM22.8314 44.8519C24.1159 44.8519 25.1607 45.8967 25.1607 47.1812C25.1607 48.4657 24.1159 49.5105 22.8314 49.5105C21.5469 49.5105 20.5021 48.4657 20.5021 47.1812C20.5021 45.8967 21.5469 44.8519 22.8314 44.8519ZM50.4589 44.5588C51.743 44.5588 52.7877 45.6041 52.7877 46.8881C52.7877 48.1731 51.743 49.2179 50.4589 49.2179C49.1745 49.2179 48.1297 48.1731 48.1297 46.8881C48.1297 45.6041 49.1745 44.5588 50.4589 44.5588ZM22.8314 46.2471C22.3163 46.2471 21.8973 46.6661 21.8973 47.1812C21.8973 47.6964 22.3163 48.1153 22.8314 48.1153C23.3461 48.1153 23.766 47.6964 23.766 47.1812C23.766 46.6661 23.3461 46.2471 22.8314 46.2471ZM50.4585 45.954C49.9438 45.954 49.5243 46.3734 49.5243 46.8881C49.5243 47.4037 49.9438 47.8227 50.4585 47.8227C50.9731 47.8227 51.3931 47.4037 51.3931 46.8881C51.3931 46.3734 50.9731 45.954 50.4585 45.954ZM27.4015 12.2778C31.9905 11.1856 36.7297 13.3869 38.856 17.5984C39.9071 17.0059 41.094 16.6966 42.3006 16.7005C46.1966 16.7005 49.3547 19.8586 49.3547 23.755C49.3552 24.0339 49.3382 24.3127 49.3034 24.5891C49.5808 24.5548 49.8597 24.5379 50.1385 24.5384C54.0345 24.5384 57.1925 27.6964 57.1925 31.5929C57.1925 35.4884 54.0345 38.6464 50.1385 38.6464H43.5498V42.2815C43.5498 42.8425 43.0932 43.2992 42.5321 43.2992C41.9711 43.2992 41.5139 42.8425 41.5139 42.2815V38.6464H36.994V44.9041C36.994 45.4651 36.5369 45.9218 35.9758 45.9218C35.4148 45.9218 34.9581 45.4651 34.9581 44.9041V38.6464H31.7488V40.9704C31.7488 41.5315 31.2926 41.9881 30.7311 41.9881C30.17 41.9881 29.7129 41.5315 29.7129 40.9704V38.6464H21.9224C18.4115 38.6556 15.428 36.0809 14.9239 32.6058C14.4189 29.1312 16.5472 25.8146 19.9159 24.8249C19.6873 23.9643 19.5714 23.078 19.5714 22.1874C19.5723 17.4699 22.812 13.3699 27.4015 12.2778Z" fill="#007B87"/>
</svg>