<svg width="85" height="96" viewBox="0 0 85 96" fill="none" xmlns="http://www.w3.org/2000/svg">
<path fill-rule="evenodd" clip-rule="evenodd" d="M42.2517 70.9492C43.3738 70.9492 44.2881 71.8625 44.2881 72.9856V88.585C45.9775 87.373 47.9975 86.7071 50.119 86.6839C50.6622 86.6839 51.1744 86.8955 51.5591 87.2802C51.9438 87.6649 52.1545 88.1762 52.1545 88.7193C52.1545 89.8424 51.2421 90.7558 50.119 90.7558C46.2153 90.7558 44.0967 94.8344 44.0928 94.8392L44.0822 94.8615C43.7159 95.5825 43.0423 96 42.27 96C41.26 96 40.2162 95.2365 40.2162 93.9587V72.9856C40.2162 71.8625 41.1295 70.9492 42.2517 70.9492ZM57.986 84.0807C60.5549 84.0807 62.6445 86.1703 62.6445 88.7392C62.6445 91.3082 60.5549 93.3978 57.986 93.3978C55.418 93.3978 53.3284 91.3082 53.3284 88.7392C53.3284 86.1703 55.418 84.0807 57.986 84.0807ZM57.986 86.871C56.9566 86.871 56.1177 87.709 56.1177 88.7392C56.1177 89.7695 56.9566 90.6075 57.986 90.6075C59.0153 90.6075 59.8552 89.7695 59.8552 88.7392C59.8552 87.709 59.0153 86.871 57.986 86.871ZM31.762 63.0819C32.8851 63.0819 33.7974 63.9953 33.7974 65.1174V75.6049C33.7974 76.8807 32.7546 77.6423 31.7456 77.6423C30.9685 77.6423 30.2929 77.2219 29.9401 76.5154L29.9053 76.4448C29.6695 76.0167 27.5606 72.399 23.8946 72.399C22.7716 72.399 21.8592 71.4857 21.8592 70.3626C21.8592 69.2405 22.7716 68.3271 23.9024 68.3271C26.0181 68.3503 28.0371 69.0163 29.7265 70.2283V65.1174C29.7265 63.9953 30.6399 63.0819 31.762 63.0819ZM55.3636 65.7047C56.4857 65.7047 57.4001 66.6171 57.4001 67.7412V70.228C59.0895 69.016 61.1095 68.3501 63.231 68.3269C63.7742 68.3269 64.2864 68.5385 64.6711 68.9232C65.0557 69.3079 65.2664 69.8191 65.2664 70.3623C65.2664 71.4864 64.3541 72.3987 63.231 72.3987C59.3273 72.3987 57.2087 76.4774 57.2048 76.4822L57.1942 76.5045C56.8279 77.2255 56.1542 77.643 55.382 77.643C54.372 77.643 53.3282 76.8795 53.3282 75.6017V67.7412C53.3282 66.6171 54.2415 65.7047 55.3636 65.7047ZM15.9628 65.7039C18.5318 65.7039 20.6214 67.7934 20.6214 70.3624C20.6214 72.9314 18.5318 75.021 15.9628 75.021C13.3939 75.021 11.3043 72.9314 11.3043 70.3624C11.3043 67.7934 13.3939 65.7039 15.9628 65.7039ZM71.2179 65.1177C73.7859 65.1177 75.8755 67.2082 75.8755 69.7762C75.8755 72.3462 73.7859 74.4358 71.2179 74.4358C68.6489 74.4358 66.5593 72.3462 66.5593 69.7762C66.5593 67.2082 68.6489 65.1177 71.2179 65.1177ZM15.9628 68.4942C14.9325 68.4942 14.0946 69.3321 14.0946 70.3624C14.0946 71.3927 14.9325 72.2307 15.9628 72.2307C16.9922 72.2307 17.8321 71.3927 17.8321 70.3624C17.8321 69.3321 16.9922 68.4942 15.9628 68.4942ZM71.2169 67.908C70.1876 67.908 69.3487 68.7469 69.3487 69.7762C69.3487 70.8075 70.1876 71.6455 71.2169 71.6455C72.2462 71.6455 73.0861 70.8075 73.0861 69.7762C73.0861 68.7469 72.2462 67.908 71.2169 67.908ZM25.103 0.555575C34.2809 -1.62873 43.7594 2.7737 48.012 11.1968C50.1142 10.0119 52.4879 9.39329 54.9013 9.40102C62.6932 9.40102 69.0093 15.7171 69.0093 23.5101C69.0103 24.0677 68.9765 24.6254 68.9069 25.1782C69.4617 25.1096 70.0193 25.0758 70.577 25.0768C78.369 25.0768 84.6851 31.3929 84.6851 39.1858C84.6851 46.9768 78.369 53.2929 70.577 53.2929H57.3997V60.5629C57.3997 61.685 56.4863 62.5984 55.3642 62.5984C54.2421 62.5984 53.3278 61.685 53.3278 60.5629V53.2929H44.2881V65.8082C44.2881 66.9303 43.3738 67.8436 42.2517 67.8436C41.1295 67.8436 40.2162 66.9303 40.2162 65.8082V53.2929H33.7976V57.9408C33.7976 59.0629 32.8853 59.9763 31.7622 59.9763C30.6401 59.9763 29.7258 59.0629 29.7258 57.9408V53.2929H14.1447C7.12309 53.3112 1.15589 48.1617 0.147826 41.2116C-0.862171 34.2624 3.39431 27.6293 10.1318 25.6499C9.67466 23.9286 9.4427 22.156 9.4427 20.3747C9.44463 10.9397 15.9241 2.73987 25.103 0.555575Z" fill="#007B87"/>
</svg>
