<svg width="166" height="72" viewBox="0 0 166 72" fill="none" xmlns="http://www.w3.org/2000/svg">
<path d="M24.5307 71.9184H0V0H24.5307V7.54979H7.54978V64.3687H24.5307V71.9184Z" fill="#C60C30"/>
<path d="M165.265 71.9184H140.746V64.3687H157.727V7.54979H140.746V0H165.265V71.9184Z" fill="#C60C30"/>
<path d="M61.0831 35.4279C61.0831 31.0422 59.8615 29.6617 59.0185 28.7211C57.2862 27.0273 54.9543 26.0875 52.5316 26.1067C50.86 26.1118 49.215 26.5251 47.7395 27.3107C46.264 28.0963 45.0028 29.2305 44.0656 30.6146V26.8764H34.0359V28.1958H38.1161V51.4071H31.3482V26.8764H21.1841V28.1958H25.4477V51.4071H21.123V52.7143H48.2802V51.3827H44.0778V40.3878C44.1389 35.6112 44.1999 31.8363 47.1441 29.393C48.2818 28.4631 49.6947 27.9349 51.1633 27.8903C52.0174 27.8562 52.8555 28.1278 53.5273 28.6563C54.1991 29.1847 54.6603 29.9354 54.8283 30.7734C55.02 31.9853 55.1059 33.2116 55.0848 34.4384V51.3827H51.1633V52.6898H65.2123V51.3827H61.0831V35.4279Z" fill="#333333"/>
<path d="M102.52 51.6268C101.078 51.6268 101.078 50.1242 101.078 47.9619V34.878C101.078 32.4958 101.078 30.4312 99.3313 28.611C97.1977 26.9043 94.5245 26.0161 91.7937 26.1066C85.4656 26.1066 81.3853 29.686 81.3853 32.7524C81.3513 33.5008 81.616 34.2321 82.1211 34.7854C82.6263 35.3387 83.3306 35.6686 84.079 35.7026C84.8275 35.7367 85.5588 35.472 86.1121 34.9668C86.6653 34.4616 86.9953 33.7573 87.0293 33.0089C87.0293 31.5551 85.7221 30.7489 85.7221 29.9914C85.7221 29.234 88.031 27.3649 90.8531 27.3649C94.9944 27.3649 95.1166 30.3091 95.251 32.1293V38.3964C92.3661 38.3719 89.4906 38.7293 86.6995 39.4592C82.497 40.7786 79.6139 43.4784 79.6139 47.3022C79.613 47.5969 79.6375 47.8912 79.6872 48.1818C79.6153 49.0933 79.1938 49.9418 78.5107 50.5497C77.8277 51.1577 76.936 51.4779 76.0223 51.4436C72.8826 51.4436 72.9437 48.8048 72.9437 46.8624V28.1712H79.6505V26.8762H72.9193V16.4434H71.9786C71.4754 18.7284 70.3704 20.8373 68.7779 22.5516C67.2658 24.5639 65.2868 26.1781 63.0117 27.2549V28.1345H67.092V43.9793C67.092 47.18 67.092 48.5605 67.5929 49.7455C68.5336 52.2621 71.0379 53.4104 74.1165 53.4104C77.7814 53.4104 79.5284 51.7612 80.3469 50.1853C81.0176 51.2557 81.9659 52.1243 83.091 52.6986C84.216 53.273 85.4757 53.5316 86.7361 53.4471C88.4899 53.4832 90.2166 53.011 91.708 52.0876C93.1993 51.1641 94.3917 49.8289 95.141 48.2429C95.1397 48.9981 95.2954 49.7454 95.5982 50.4374C95.901 51.1293 96.3444 51.7506 96.9002 52.2621C97.9515 53.0665 99.2415 53.4964 100.565 53.4837C101.45 53.4883 102.326 53.3068 103.136 52.9512C103.946 52.5955 104.673 52.0735 105.268 51.4191L104.511 50.5395C104.035 50.8816 103.338 51.6268 102.52 51.6268ZM95.2876 41.7803C95.1532 44.9811 95.0311 47.18 93.0276 49.1102C92.079 50.0104 90.8288 50.5244 89.5215 50.5518C87.4691 50.564 85.5145 49.2446 85.5145 46.1783C85.5145 41.0351 90.34 39.5814 95.2876 39.5325V41.7803Z" fill="#333333"/>
<path d="M117.889 52.0666C116.648 52.1536 115.413 51.8168 114.388 51.1111C113.363 50.4054 112.607 49.3726 112.245 48.1818C111.702 46.1398 111.487 44.0242 111.61 41.9147C111.61 39.0805 111.683 33.3632 112.685 30.9199C113.124 29.8068 113.911 28.8648 114.927 28.2333C115.944 27.6018 117.136 27.3145 118.329 27.4138C121.713 27.4138 123.289 28.9775 123.289 29.5394C123.289 29.7838 123.154 29.9182 122.971 30.1625C122.189 30.9476 121.75 32.0106 121.75 33.1189C121.723 33.5317 121.779 33.9457 121.914 34.3368C122.048 34.7279 122.259 35.0884 122.534 35.3975C122.809 35.7065 123.143 35.958 123.515 36.1372C123.888 36.3165 124.293 36.42 124.706 36.4418C125.149 36.428 125.585 36.3251 125.987 36.1392C126.389 35.9533 126.75 35.6883 127.048 35.3599C127.345 35.0315 127.574 34.6465 127.719 34.2279C127.865 33.8092 127.924 33.3656 127.894 32.9234C127.894 29.7838 124.327 26.1555 118.488 26.1555C116.672 26.1455 114.872 26.4984 113.194 27.1937C111.516 27.8889 109.994 28.9125 108.717 30.2041C107.44 31.4958 106.434 33.0296 105.758 34.7155C105.082 36.4013 104.75 38.2052 104.781 40.0212C104.73 41.7555 105.026 43.4825 105.651 45.1012C106.275 46.72 107.216 48.1981 108.418 49.4492C109.62 50.7003 111.06 51.6992 112.652 52.3878C114.245 53.0763 115.959 53.4406 117.694 53.4593C124.474 53.4593 127.797 48.756 128.689 44.3092H127.125C126.712 46.467 125.568 48.4167 123.886 49.8297C122.204 51.2427 120.086 52.0327 117.889 52.0666Z" fill="#333333"/>
<path d="M144.79 47.8641C144.779 48.3465 144.672 48.822 144.477 49.2632C144.282 49.7044 144.001 50.1028 143.652 50.4353C143.302 50.7679 142.89 51.0282 142.44 51.2012C141.99 51.3742 141.509 51.4566 141.027 51.4436C137.887 51.4436 137.961 48.8048 137.961 46.8624V28.1712H144.668V26.8762H137.961V16.4434H137.02C136.503 18.7232 135.399 20.8286 133.819 22.5516C132.303 24.5644 130.32 26.1785 128.041 27.2549V28.1345H132.121V43.9793C132.121 47.18 132.121 48.5605 132.622 49.7455C133.563 52.2621 136.079 53.4104 139.146 53.4104C144.985 53.4104 145.865 49.3423 146.17 47.8275L144.79 47.8641Z" fill="#333333"/>
<path d="M27.9151 21.4158C28.7587 21.4133 29.5827 21.1614 30.2834 20.6917C30.9841 20.222 31.5302 19.5556 31.853 18.7762C32.1758 17.9968 32.2609 17.1394 32.0975 16.3118C31.9341 15.4842 31.5295 14.7234 30.9347 14.1252C30.3399 13.527 29.5815 13.1181 28.7548 12.95C27.9281 12.7819 27.0702 12.8621 26.289 13.1805C25.5078 13.4988 24.8383 14.0412 24.3646 14.7392C23.8909 15.4373 23.6343 16.2598 23.6271 17.1034C23.6223 17.669 23.7297 18.2299 23.9431 18.7537C24.1566 19.2775 24.4719 19.7538 24.8707 20.1549C25.2695 20.556 25.744 20.8739 26.2666 21.0904C26.7891 21.3068 27.3495 21.4174 27.9151 21.4158Z" fill="#333333"/>
<path d="M40.998 71.8818V64.332H42.8794V71.8818H40.998Z" fill="#C60C30"/>
<path d="M51.9816 71.8818L49.0863 66.9952V71.8818H47.3027V64.332H49.2696L52.0305 68.9376V64.332H53.753V71.8818H51.9816Z" fill="#C60C30"/>
<path d="M62.7804 66.4701C62.221 66.0049 61.5275 65.731 60.8013 65.6882C60.1172 65.6882 59.7751 65.8837 59.7751 66.2991C59.7751 66.7144 60.2394 66.8854 60.4593 66.971C60.6792 67.0565 61.6076 67.3619 61.8397 67.4352C62.1882 67.5667 62.5139 67.7523 62.8048 67.9849C63.0385 68.1714 63.2254 68.4099 63.3505 68.6814C63.4757 68.9529 63.5356 69.2499 63.5256 69.5486C63.5347 69.8894 63.4631 70.2276 63.3166 70.5354C63.1701 70.8433 62.9529 71.1121 62.6827 71.32C62.0625 71.8078 61.283 72.0473 60.4959 71.9919C59.4267 71.9992 58.3905 71.622 57.5762 70.9291L58.4313 69.5609C59.0188 70.063 59.75 70.3666 60.5203 70.4282C61.2778 70.4282 61.6443 70.1839 61.6443 69.7563C61.6443 69.3287 61.1556 69.1577 60.8868 69.06L59.6652 68.6324C59.2935 68.5022 58.9434 68.3169 58.6268 68.0827C58.3909 67.8906 58.2038 67.6455 58.0807 67.3674C57.9576 67.0893 57.9019 66.786 57.9182 66.4823C57.919 66.1419 58.0015 65.8066 58.1588 65.5048C58.3162 65.2029 58.5437 64.9432 58.8223 64.7476C59.4097 64.3561 60.1089 64.1673 60.8135 64.21C61.7969 64.2163 62.7489 64.5567 63.5134 65.1751L62.7804 66.4701Z" fill="#C60C30"/>
<path d="M71.8325 64.332H73.7139V68.8766C73.7542 69.2882 73.7111 69.7037 73.5873 70.0983C73.4634 70.4929 73.2613 70.8585 72.9931 71.1733C72.2901 71.7063 71.4321 71.9949 70.5498 71.9949C69.6675 71.9949 68.8095 71.7063 68.1065 71.1733C67.8383 70.8585 67.6362 70.4929 67.5123 70.0983C67.3885 69.7037 67.3454 69.2882 67.3857 68.8766V64.332H69.2671V68.9621C69.244 69.1441 69.2581 69.3288 69.3085 69.5052C69.3589 69.6816 69.4445 69.8459 69.5603 69.9883C69.8312 70.2311 70.1863 70.3582 70.5498 70.3425C70.9129 70.3557 71.2671 70.2288 71.5393 69.9883C71.6576 69.8475 71.7449 69.6833 71.7954 69.5065C71.846 69.3296 71.8586 69.1441 71.8325 68.9621V64.332Z" fill="#C60C30"/>
<path d="M82.2064 71.8824L80.6304 69.1093H79.873V71.8824H78.0039V64.3326H80.9847C81.6924 64.2858 82.397 64.4609 83.0004 64.8335C83.2855 65.039 83.5159 65.3113 83.6714 65.6265C83.8269 65.9417 83.9027 66.2902 83.8922 66.6415C83.9111 67.1049 83.7831 67.5623 83.5264 67.9485C83.2696 68.3346 82.8974 68.6297 82.4629 68.7916L84.2954 71.8824H82.2064ZM81.6444 65.9696C81.4071 65.822 81.1291 65.7536 80.8503 65.7742H79.8852V67.7288H80.8503C81.1285 67.7431 81.4047 67.6751 81.6444 67.5333C81.7593 67.4361 81.8509 67.3142 81.9122 67.1768C81.9735 67.0393 82.0031 66.8898 81.9987 66.7393C82.0003 66.5928 81.9694 66.4477 81.9081 66.3146C81.8468 66.1815 81.7568 66.0637 81.6444 65.9696Z" fill="#C60C30"/>
<path d="M92.552 71.8818L92.1122 70.4525H89.449L89.0093 71.8818H87.1523L89.7178 64.332H91.9901L94.5555 71.8818H92.552ZM90.7806 66.1034L89.8766 68.9865H91.6847L90.7806 66.1034Z" fill="#C60C30"/>
<path d="M102.776 71.8818L99.8808 66.9952V71.8818H98.1094V64.332H100.064L102.825 68.9376V64.332H104.596V71.8818H102.776Z" fill="#C60C30"/>
<path d="M115.189 70.7093C114.843 71.1283 114.402 71.4581 113.902 71.6707C113.403 71.8833 112.859 71.9726 112.318 71.9309C111.813 71.945 111.31 71.852 110.844 71.6579C110.377 71.4639 109.957 71.1732 109.611 70.8051C109.264 70.437 109 69.9997 108.835 69.522C108.67 69.0444 108.608 68.5372 108.653 68.0339C108.631 67.5332 108.712 67.0333 108.891 66.5652C109.07 66.097 109.343 65.6706 109.694 65.3122C110.044 64.9538 110.464 64.6711 110.928 64.4816C111.392 64.292 111.89 64.1996 112.391 64.2101C112.923 64.1784 113.454 64.2725 113.942 64.4847C114.43 64.697 114.862 65.0215 115.201 65.4318L114.272 66.6534C114.07 66.3765 113.805 66.1507 113.5 65.9938C113.194 65.8368 112.857 65.7532 112.513 65.7494C111.977 65.8289 111.488 66.0984 111.133 66.5087C110.779 66.9191 110.585 67.443 110.585 67.985C110.585 68.527 110.779 69.0509 111.133 69.4613C111.488 69.8717 111.977 70.1412 112.513 70.2206C112.862 70.216 113.204 70.1322 113.515 69.9756C113.827 69.8189 114.098 69.5936 114.309 69.3166L115.189 70.7093Z" fill="#C60C30"/>
<path d="M119.072 71.8818V64.332H124.154V65.7858H120.941V67.1907H123.922V68.6811H120.941V70.367H124.264V71.8818H119.072Z" fill="#C60C30"/>
</svg>
