<svg width="96" height="93" viewBox="0 0 96 93" fill="none" xmlns="http://www.w3.org/2000/svg">
<path fill-rule="evenodd" clip-rule="evenodd" d="M3.53673 13.6876V43.9847L13.7515 71.5969H15.9352V83.7313H14.2068L13.1897 92.8251H22.6567L21.6658 83.7313H20.1352V71.5969H22.2139L32.3578 43.9823V13.6876H36.0703V0H0V13.6876H3.53673ZM20.1352 58.0435V65.0752L28.1578 43.2352V37.3714H7.73673V43.2328L15.9352 65.3943V58.0435H20.1352ZM28.1578 14.1822V27.1995H7.73673V14.1822H28.1578ZM28.5117 31.2894H7.33888V32.8831H28.5117V31.2894ZM53.8834 19.6385H77.6252V27.176H96V68.3561H35.4727V27.176H53.8834V19.6385ZM73.4252 23.8385V27.176H58.0834V23.8385H73.4252ZM37.207 39.1958L43.6523 39.1958V41.5902H47.1914V39.1958L85.3711 39.1958V41.5902H88.8867V39.1958H94.7695V37.5158L88.8867 37.5158V35.1214H85.3711V37.5158L47.1914 37.5158V35.1214H43.6523V37.5158L37.207 37.5158V39.1958ZM67.9418 50.9542V44.9184H63.7418V50.9542H57.7002V55.1542H63.7418V61.1988H67.9418V55.1542H73.9805V50.9542H67.9418Z" fill="#007B87"/>
</svg>
