<svg width="160" height="160" viewBox="0 0 160 160" fill="none" xmlns="http://www.w3.org/2000/svg">
<rect width="160" height="160" rx="80" fill="#007B87"/>
<path d="M122.909 52.9817C122.722 52.2236 122.285 51.5505 121.669 51.0703C121.053 50.5901 120.294 50.3306 119.513 50.3333H105V49.1667C105 48.5478 104.754 47.9543 104.317 47.5168C103.879 47.0792 103.285 46.8333 102.667 46.8333H88.9093C87.7451 45.0443 86.1529 43.574 84.2772 42.5554C82.4014 41.5368 80.3011 41.0022 78.1667 41H73.5C70.0976 41.004 66.8357 42.3574 64.4299 44.7632C62.024 47.1691 60.6707 50.431 60.6667 53.8333V56.2833C59.3341 56.5536 58.1382 57.2816 57.2861 58.3411C56.4339 59.4006 55.9794 60.7248 56.0011 62.0843C56.0228 63.4437 56.5196 64.7528 57.4051 65.7845C58.2907 66.8162 59.5094 67.5055 60.8498 67.733C61.2359 70.3151 62.2806 72.7543 63.8833 74.8153C65.486 76.8763 67.5926 78.4897 70 79.5V81.8333H67.6667C66.7442 81.8368 65.8254 81.95 64.9297 82.1705C64.911 82.1775 64.89 82.1787 64.8725 82.1857C62.3434 82.8116 60.0963 84.2653 58.4886 86.3155C56.8809 88.3657 56.0049 90.8946 56 93.5V106.333C56 107.571 56.4917 108.758 57.3668 109.633C58.242 110.508 59.429 111 60.6667 111H91C92.2377 111 93.4246 110.508 94.2998 109.633C95.175 108.758 95.6667 107.571 95.6667 106.333V93.5C95.6659 91.4501 95.1212 89.4372 94.0882 87.6667H98C98.3094 87.6667 98.6062 87.5438 98.8249 87.325C99.0437 87.1062 99.1667 86.8094 99.1667 86.5C99.1667 86.1906 99.0437 85.8938 98.8249 85.675C98.6062 85.4562 98.3094 85.3333 98 85.3333H92.3172C90.8052 83.7928 88.8952 82.7023 86.8 82.1833C86.7825 82.1752 86.7615 82.1752 86.7428 82.1682C85.8451 81.948 84.9243 81.8356 84 81.8333H81.6667V80.6667H108.617C108.45 81.4764 108.46 82.3125 108.646 83.1179C108.833 83.9233 109.191 84.679 109.696 85.3333H102.667C102.357 85.3333 102.06 85.4562 101.842 85.675C101.623 85.8938 101.5 86.1906 101.5 86.5C101.5 86.8094 101.623 87.1062 101.842 87.325C102.06 87.5438 102.357 87.6667 102.667 87.6667H124.833C125.143 87.6667 125.439 87.5438 125.658 87.325C125.877 87.1062 126 86.8094 126 86.5C126 86.1906 125.877 85.8938 125.658 85.675C125.439 85.4562 125.143 85.3333 124.833 85.3333H118.97C119.475 84.679 119.833 83.9233 120.019 83.1179C120.205 82.3125 120.215 81.4764 120.049 80.6667H122.5C123.428 80.6667 124.318 80.2979 124.975 79.6415C125.631 78.9852 126 78.0949 126 77.1667V65.7917C126.001 65.5037 125.966 65.2168 125.895 64.9377L122.909 52.9817ZM123.667 73.6667H122.5C122.191 73.6667 121.894 73.5438 121.675 73.325C121.456 73.1062 121.333 72.8094 121.333 72.5C121.333 72.1906 121.456 71.8938 121.675 71.675C121.894 71.4562 122.191 71.3333 122.5 71.3333H123.667V73.6667ZM120.645 53.544L123.049 63.1667H110.833C110.524 63.1667 110.227 63.0438 110.008 62.825C109.79 62.6062 109.667 62.3094 109.667 62V52.6667H119.513C119.773 52.6651 120.026 52.7507 120.231 52.9098C120.436 53.0689 120.582 53.2922 120.645 53.544ZM102.667 49.1667V73.6667H88.5932C89.7469 71.8694 90.5049 69.847 90.8168 67.7342C92.158 67.5073 93.3774 66.8182 94.2636 65.7863C95.1498 64.7544 95.6469 63.4449 95.6687 62.0849C95.6904 60.7249 95.2355 59.4001 94.3827 58.3404C93.53 57.2808 92.3332 56.553 91 56.2833V53.8333C90.9979 52.2357 90.6956 50.6526 90.1087 49.1667H102.667ZM102.667 78.3333H83.8833C84.9323 77.6751 85.8973 76.8915 86.7568 76H102.667V78.3333ZM93.3333 62C93.3303 62.7213 93.1046 63.4241 92.6869 64.0121C92.2692 64.6002 91.68 65.0449 91 65.2853V58.7147C91.68 58.9551 92.2692 59.3998 92.6869 59.9879C93.1046 60.5759 93.3303 61.2787 93.3333 62ZM73.5 43.3333H78.1667C80.9505 43.3364 83.6194 44.4437 85.5879 46.4121C87.5563 48.3806 88.6636 51.0495 88.6667 53.8333V55.3173C84.6469 53.4668 80.2573 52.5601 75.8333 52.6667C71.4094 52.5601 67.0197 53.4668 63 55.3173V53.8333C63.0031 51.0495 64.1103 48.3806 66.0788 46.4121C68.0472 44.4437 70.7162 43.3364 73.5 43.3333ZM87.9457 57.5667L86.6472 58.8652C86.2859 59.213 85.838 59.4578 85.3501 59.5739C84.8622 59.69 84.3521 59.6733 83.8728 59.5255C81.2661 58.7512 78.551 58.4049 75.8333 58.5C73.1157 58.4066 70.401 58.7549 67.795 59.5313C67.3156 59.6801 66.8051 59.6973 66.3168 59.5812C65.8286 59.465 65.3805 59.2197 65.0195 58.871L63.721 57.5667C67.4998 55.7688 71.6501 54.8893 75.8333 55C80.0166 54.8893 84.1668 55.7688 87.9457 57.5667ZM58.3333 62C58.3363 61.2787 58.5621 60.5759 58.9798 59.9879C59.3974 59.3998 59.9866 58.9551 60.6667 58.7147V65.2853C59.9866 65.0449 59.3974 64.6002 58.9798 64.0121C58.5621 63.4241 58.3363 62.7213 58.3333 62ZM63 65.5V60.1497L63.3698 60.5195C63.838 60.9906 64.3951 61.3641 65.0087 61.6182C65.6223 61.8724 66.2803 62.0021 66.9445 62C67.4925 62.0019 68.0371 61.9124 68.5557 61.7352C70.9178 61.0479 73.3748 60.7434 75.8333 60.8333C78.2922 60.744 80.7496 61.0488 83.1122 61.7363C83.6308 61.9133 84.1753 62.0024 84.7233 62C86.063 61.9967 87.3473 61.4646 88.2968 60.5195L88.6667 60.1497V65.5C88.6667 68.9036 87.3146 72.1678 84.9079 74.5745C82.5011 76.9813 79.2369 78.3333 75.8333 78.3333C72.4297 78.3333 69.1655 76.9813 66.7588 74.5745C64.3521 72.1678 63 68.9036 63 65.5ZM75.8333 80.6667C77.0125 80.6625 78.1872 80.5203 79.3333 80.2432V88.8333H72.3333V80.2432C73.4795 80.5203 74.6541 80.6625 75.8333 80.6667ZM58.3333 106.333V93.5C58.3359 91.6422 58.8923 89.8273 59.9314 88.2873C60.9704 86.7472 62.445 85.5518 64.1667 84.8538V108.667H60.6667C60.0478 108.667 59.4543 108.421 59.0167 107.983C58.5792 107.546 58.3333 106.952 58.3333 106.333ZM93.3333 93.5V106.333C93.3333 106.952 93.0875 107.546 92.6499 107.983C92.2123 108.421 91.6188 108.667 91 108.667H87.5V84.8538C89.2217 85.5518 90.6963 86.7472 91.7353 88.2873C92.7743 89.8273 93.3307 91.6422 93.3333 93.5ZM84 84.1667C84.3902 84.1692 84.7798 84.1961 85.1667 84.2472V108.667H66.5V84.2472C66.8868 84.1961 67.2765 84.1692 67.6667 84.1667H70V88.8333C70 89.4522 70.2458 90.0457 70.6834 90.4832C71.121 90.9208 71.7145 91.1667 72.3333 91.1667H79.3333C79.9522 91.1667 80.5457 90.9208 80.9832 90.4832C81.4208 90.0457 81.6667 89.4522 81.6667 88.8333V84.1667H84ZM110.833 81.8333C110.833 81.1411 111.039 80.4644 111.423 79.8888C111.808 79.3133 112.354 78.8647 112.994 78.5998C113.633 78.3348 114.337 78.2655 115.016 78.4006C115.695 78.5356 116.319 78.869 116.808 79.3585C117.298 79.8479 117.631 80.4716 117.766 81.1505C117.901 81.8295 117.832 82.5332 117.567 83.1727C117.302 83.8123 116.853 84.3589 116.278 84.7435C115.702 85.1281 115.026 85.3333 114.333 85.3333C113.405 85.3333 112.515 84.9646 111.858 84.3082C111.202 83.6518 110.833 82.7616 110.833 81.8333ZM122.5 78.3333H118.97C118.433 77.6094 117.734 77.0213 116.929 76.6161C116.123 76.2109 115.235 75.9999 114.333 75.9999C113.432 75.9999 112.543 76.2109 111.738 76.6161C110.933 77.0213 110.234 77.6094 109.697 78.3333H105V52.6667H107.333V62C107.333 62.9283 107.702 63.8185 108.358 64.4749C109.015 65.1313 109.905 65.5 110.833 65.5H123.632C123.655 65.5955 123.667 65.6934 123.667 65.7917V69H122.5C121.572 69 120.681 69.3687 120.025 70.0251C119.369 70.6815 119 71.5717 119 72.5C119 73.4283 119.369 74.3185 120.025 74.9749C120.681 75.6313 121.572 76 122.5 76H123.667V77.1667C123.667 77.4761 123.544 77.7728 123.325 77.9916C123.106 78.2104 122.809 78.3333 122.5 78.3333Z" fill="white"/>
</svg>
