<svg xmlns="http://www.w3.org/2000/svg" width="40" height="40" viewBox="0 0 40 40" fill="none">
  <path d="M33.3334 8.33325H30.0001V3.33325H10.0001V8.33325H6.66675C3.33341 8.33325 0.833412 10.8333 0.833412 14.1666V21.6666H6.66675V26.6666H10.0001V33.3333H30.0001V26.6666H33.3334V21.6666H39.1667V14.1666C39.1667 10.8333 36.6667 8.33325 33.3334 8.33325ZM6.66675 18.3333H4.16675V14.1666C4.16675 12.6666 5.16675 11.6666 6.66675 11.6666H10.0001V18.3333H6.66675ZM26.6667 29.9999H13.3334V11.6666H26.6667V29.9999ZM35.8334 18.3333H33.3334V11.6666H35.8334C37.3334 11.6666 38.3334 12.6666 38.3334 14.1666V18.3333H35.8334Z" fill="#007B87"/>
</svg>
