<svg width="132" height="83" viewBox="0 0 132 83" fill="none" xmlns="http://www.w3.org/2000/svg">
<path fill-rule="evenodd" clip-rule="evenodd" d="M62.5776 7.05295C61.3428 7.05295 60.3353 6.04538 60.3353 4.81062C60.3353 3.57587 61.3428 2.56929 62.5776 2.56929C63.8123 2.56929 64.8199 3.57587 64.8199 4.81062C64.8199 6.04538 63.8123 7.05295 62.5776 7.05295ZM51.9784 72.8715H73.1778V68.9203H51.9784V72.8715ZM132 23.0757V82.68H97.8027V23.0757H132ZM114.921 73.6218C113.222 73.6218 111.859 74.9958 111.859 76.684C111.859 76.7334 111.859 76.7828 111.869 76.8321C111.869 76.9309 111.879 77.0297 111.899 77.1285C111.909 77.2273 111.928 77.3261 111.958 77.4248C111.978 77.5039 111.997 77.5829 112.027 77.6619C112.047 77.7409 112.067 77.8101 112.106 77.8693C112.136 77.9681 112.185 78.057 112.235 78.1459C112.322 78.3139 112.432 78.4818 112.561 78.63C112.62 78.709 112.679 78.7781 112.758 78.8473C113.094 79.194 113.529 79.4597 114.013 79.6089C114.161 79.6563 114.298 79.6879 114.457 79.7067C114.605 79.7363 114.763 79.7462 114.921 79.7462C115.079 79.7462 115.237 79.7363 115.386 79.7067C115.544 79.6879 115.682 79.6563 115.83 79.6089C116.768 79.3214 117.508 78.5895 117.816 77.6619C117.844 77.5829 117.865 77.5039 117.885 77.4248C117.914 77.3261 117.934 77.2273 117.944 77.1285C117.964 77.0297 117.974 76.9309 117.974 76.8321C117.984 76.7828 117.984 76.7334 117.984 76.684C117.984 74.9958 116.61 73.6218 114.921 73.6218ZM116.156 0V19.1249H111.928V9.53333H11.3302V62.4304H93.8516V76.8326H0V68.8018H7.10234V0H116.156ZM129.225 32.2326H100.578V70.6287H129.225V32.2326Z" fill="#757575"/>
</svg>
