<svg width="99" height="125" viewBox="0 0 99 125" fill="none" xmlns="http://www.w3.org/2000/svg">
<path fill-rule="evenodd" clip-rule="evenodd" d="M90.386 100.343L78.2383 112.219L77.1486 113.284L76.5532 113.866L75.97 113.271L74.7137 111.983L69.8451 107.224L69.2486 106.643L69.8306 106.046L71.669 104.164L72.2533 103.569L72.8476 104.152L76.5965 107.816L85.5896 99.0248L87.3835 97.2708L87.9778 96.6888L88.561 97.2841L90.0328 98.7904L90.4005 99.1647L90.9825 99.7623L90.386 100.343ZM4.44321 112.219V14.6837H28.2577L30.7181 20.481H59.0469L61.5063 14.6837H85.5896V86.8037C83.6901 86.1839 81.6662 85.8384 79.5613 85.8384C77.5563 85.8384 75.6124 86.1428 73.7906 86.7126C65.8695 89.1664 60.1222 96.541 60.1222 105.277C60.1222 107.726 60.5887 110.062 61.4141 112.219H4.44321ZM45.3463 5.44294C47.9689 5.44294 50.095 7.5679 50.095 10.1916C50.095 10.2072 50.0894 10.2238 50.0894 10.2405C50.0617 12.8398 47.9522 14.9381 45.3463 14.9381C42.7404 14.9381 40.6309 12.8398 40.6043 10.2405C40.6043 10.2238 40.5987 10.2072 40.5987 10.1916C40.5987 7.5679 42.7237 5.44294 45.3463 5.44294ZM90.0328 88.9176V10.2405H66.5726L63.6468 0H27.0392L24.1133 10.2405H0V116.662H63.8101C66.2161 119.985 69.6407 122.518 73.6329 123.792C75.5035 124.388 77.4963 124.717 79.5613 124.717C90.2894 124.717 99.0003 116.017 99.0003 105.277C99.0003 98.3994 95.4191 92.3733 90.0328 88.9176ZM16.7766 39.7589H73.9085V35.3157H16.7766V39.7589ZM16.7766 55.2324H73.9085V50.7891H16.7766V55.2324ZM16.7766 70.2538H73.9085V65.8105H16.7766V70.2538ZM17.0732 85.8383H50.8793V81.3951H17.0732V85.8383Z" fill="#757575"/>
</svg>
