<svg width="97" height="125" viewBox="0 0 97 125" fill="none" xmlns="http://www.w3.org/2000/svg">
<path fill-rule="evenodd" clip-rule="evenodd" d="M91.7079 120.239H4.76095V15.7242H30.2797L32.9113 21.9373H63.2731L65.9035 15.7242H91.7079V120.239ZM43.5032 10.9145C43.5032 8.10671 45.7766 5.83336 48.5867 5.83336C51.3945 5.83336 53.6797 8.10671 53.6797 10.9145C53.6797 10.9395 53.6678 10.9514 53.6678 10.9633C53.6452 13.7484 51.3826 15.998 48.5867 15.998C45.8016 15.998 43.5389 13.7484 43.5032 10.9633V10.9145ZM71.331 10.9633L68.2007 0H28.9704L25.8401 10.9633H0V125H96.4688V10.9633H71.331ZM17.9716 83.9249H79.1856V79.1639H17.9716V83.9249ZM17.9716 100.017H79.1856V95.256H17.9716V100.017ZM54.8581 46.0038C54.8581 50.2767 51.8944 53.7403 48.2284 53.7403C44.5744 53.7403 41.6107 50.2767 41.6107 46.0038C41.6107 40.3263 44.5744 38.2672 48.2284 38.2672C51.8944 38.2672 54.8581 40.3263 54.8581 46.0038ZM62.5354 64.1432V67.8092H33.9339V64.1432C33.9339 62.4769 34.2541 60.8225 34.9694 59.3097C36.1002 56.9185 38.3616 54.3833 42.8607 53.2764C42.9321 53.2526 43.0035 53.2407 43.0869 53.2169C44.5152 54.4666 46.3005 55.2046 48.2275 55.2046C50.1688 55.2046 51.9541 54.4666 53.3705 53.2288L53.5955 53.2633C58.097 54.3714 60.3691 56.9066 61.4998 59.3097C62.2128 60.8225 62.5354 62.4769 62.5354 64.1432Z" fill="#757575"/>
</svg>
