<svg width="32" height="33" viewBox="0 0 32 33" fill="none" xmlns="http://www.w3.org/2000/svg">
<path fill-rule="evenodd" clip-rule="evenodd" d="M23.2214 8.64127C23.2214 2.29734 19.929 0 15.8686 0C11.8078 0 8.51589 2.29734 8.51589 8.64127C8.51589 13.4132 11.8074 17.2825 15.8686 17.2825C19.9294 17.2825 23.2214 13.4132 23.2214 8.64127ZM21.8143 16.7544L21.5724 16.7028C19.991 18.0889 18.0135 18.9155 15.8685 18.9155C13.7189 18.9155 11.7374 18.0848 10.154 16.6934C10.0652 16.7182 9.98038 16.741 9.90325 16.7597C4.91447 17.9978 2.40434 20.8274 1.14644 23.5082C0.35738 25.1903 0 27.0449 0 28.9051V32.9997H31.7369V28.9047C31.7369 27.0432 31.3791 25.1875 30.5889 23.5049C29.3294 20.8209 26.814 17.9893 21.8143 16.7544Z" fill="#007B87"/>
</svg>
