<svg width="120" height="75" viewBox="0 0 120 75" fill="none" xmlns="http://www.w3.org/2000/svg">
<path d="M117.436 55.9891V44.3155C117.436 41.9353 116.254 39.7903 114.437 38.9011L104.572 34.0363L86.2494 16.4689H70.2654V38.9713L14.3677 6.80028C14.3938 6.5649 14.4111 6.32952 14.4111 6.09408C14.4111 2.73756 11.6906 0 8.3355 0C4.98042 0 2.2686 2.7288 2.2686 6.09408C2.2686 8.8491 4.10256 11.1769 6.60582 11.9267V24.4811H6.63192V26.7829H6.65796C7.0752 26.7829 7.47504 26.8615 7.84878 27.0181C9.03954 27.5065 9.82182 28.6573 9.82182 29.9473C9.82182 30.7933 9.50022 31.5955 8.90046 32.1967C8.30076 32.7985 7.50978 33.1387 6.66666 33.1387H6.64926C4.91088 33.1387 3.48546 31.7263 3.47676 29.9737L0 29.9911C0 31.7695 0.70404 33.4435 1.97304 34.6993C3.2247 35.9455 4.88484 36.6259 6.64926 36.6259H6.68406C8.45718 36.6259 10.126 35.9197 11.3777 34.6555C12.6293 33.3913 13.3073 31.7089 13.2986 29.9299C13.2899 27.5677 12.0469 25.4314 10.0739 24.2457V11.9267C11.2125 11.5867 12.2208 10.9154 12.9683 10.0174L33.7418 21.9703L49.005 45.8497H19.5654V55.9807H17.1317V63.6961H25.7888C25.7801 63.8971 25.7627 64.0885 25.7627 64.2889C25.7627 70.1743 30.5345 74.9689 36.4103 74.9689C42.286 74.9689 47.0578 70.1827 47.0578 64.2889C47.0578 64.0885 47.0404 63.8971 47.0317 63.6961H67.6836V45.8413H53.1594L40.2955 25.7191L70.2738 42.9727V63.6961H87.5358C87.5274 63.8971 87.51 64.0885 87.51 64.2889C87.51 67.1401 88.6134 69.8251 90.63 71.8393C92.6382 73.8535 95.3148 74.9689 98.1576 74.9689C104.024 74.9689 108.805 70.1827 108.805 64.2889C108.805 64.0885 108.787 63.8971 108.779 63.6961H120V55.9807H117.462L117.436 55.9891ZM8.3442 8.7009C7.29246 8.7009 6.3972 8.07318 5.98872 7.18392C5.98872 7.18392 5.98872 7.17516 5.98002 7.16646C5.91918 7.02696 5.86704 6.87876 5.83224 6.73056C5.83224 6.7044 5.81484 6.67824 5.8062 6.65208C5.7714 6.48642 5.754 6.30336 5.7453 6.129V6.10284V6.08538C5.7453 5.90232 5.7627 5.72796 5.8062 5.55354C5.8062 5.52744 5.82354 5.50998 5.83224 5.48382C5.86704 5.32686 5.91918 5.17866 5.98002 5.03046V5.02176C6.3885 4.12374 7.29246 3.49602 8.3355 3.49602C9.76968 3.49602 10.9344 4.66428 10.9344 6.10284C10.9344 7.54134 9.76968 8.7096 8.3355 8.7096L8.3442 8.7009ZM43.5724 64.2979C43.5724 68.2645 40.3651 71.4907 36.4016 71.4907C32.438 71.4907 29.2307 68.2735 29.2307 64.2979C29.2307 64.0975 29.2481 63.9055 29.2568 63.7051C29.5523 60.0085 32.638 57.1051 36.3929 57.1051C40.1477 57.1051 43.2334 60.0085 43.5289 63.7051C43.5463 63.8971 43.555 64.0975 43.555 64.2979H43.5724ZM75.4626 32.4151V21.6651H84.6414L95.8452 32.4151H75.4716H75.4626ZM105.311 64.2979C105.311 68.2645 102.103 71.4907 98.1402 71.4907C94.1766 71.4907 90.969 68.2735 90.969 64.2979C90.969 64.0975 90.9864 63.9055 90.9954 63.7051C91.0128 63.4873 91.0386 63.2689 91.0824 63.0601C91.0824 63.0427 91.0824 63.0163 91.0824 63.0163C91.1172 62.8159 91.1604 62.6155 91.221 62.4235C91.221 62.3971 91.23 62.3713 91.2384 62.3449C91.2906 62.1619 91.3518 61.9789 91.4214 61.8043C91.4388 61.7695 91.4472 61.7347 91.4556 61.6999C91.5252 61.5343 91.5948 61.3687 91.6734 61.2031C91.6908 61.1593 91.7166 61.1155 91.734 61.0807C91.812 60.9241 91.8906 60.7759 91.9776 60.6277C92.0034 60.5839 92.0382 60.5317 92.0646 60.4879C92.151 60.3487 92.238 60.2179 92.334 60.0871C92.3688 60.0349 92.412 59.9821 92.4468 59.9299C92.5422 59.8081 92.6382 59.6857 92.7336 59.5723C92.7858 59.5201 92.829 59.4589 92.8812 59.4067C92.9772 59.3023 93.081 59.1979 93.1854 59.0929C93.2466 59.0317 93.3072 58.9795 93.3684 58.9273C93.4722 58.8403 93.5766 58.7443 93.681 58.6573C93.7506 58.6051 93.8286 58.5439 93.8982 58.4917C94.0026 58.4131 94.107 58.3435 94.2114 58.2649C94.2984 58.2127 94.3848 58.1599 94.4718 58.1077C94.5762 58.0471 94.6806 57.9859 94.785 57.9247C94.8804 57.8725 94.9848 57.8287 95.0802 57.7855C95.1846 57.7327 95.289 57.6895 95.3934 57.6457C95.5062 57.6019 95.6196 57.5587 95.7324 57.5239C95.8368 57.4891 95.9322 57.4537 96.0366 57.4189C96.1584 57.3841 96.2886 57.3493 96.4188 57.3235C96.5148 57.2971 96.6102 57.2707 96.7056 57.2533C96.8538 57.2275 97.0098 57.2011 97.158 57.1837C97.236 57.1747 97.314 57.1573 97.3926 57.1489C97.6272 57.1225 97.8702 57.1141 98.1054 57.1141C98.34 57.1141 98.583 57.1225 98.8182 57.1489C98.8962 57.1489 98.9742 57.1747 99.0528 57.1837C99.2088 57.2011 99.357 57.2275 99.5046 57.2533C99.6 57.2707 99.696 57.2971 99.7914 57.3235C99.9216 57.3582 100.052 57.3841 100.174 57.4189C100.278 57.4537 100.374 57.4891 100.478 57.5239C100.591 57.5671 100.704 57.6019 100.817 57.6457C100.921 57.6895 101.026 57.7417 101.13 57.7855C101.225 57.8287 101.33 57.8809 101.425 57.9247C101.53 57.9769 101.634 58.0471 101.738 58.1077C101.825 58.1599 101.912 58.2127 101.999 58.2649C102.103 58.3345 102.208 58.4131 102.312 58.4827C102.39 58.5349 102.46 58.5871 102.529 58.6483C102.634 58.7353 102.738 58.8229 102.842 58.9099C102.903 58.9621 102.964 59.0233 103.025 59.0755C103.129 59.1715 103.234 59.2759 103.329 59.3893C103.381 59.4415 103.424 59.4943 103.477 59.5549C103.581 59.6683 103.676 59.7907 103.763 59.9125C103.807 59.9647 103.842 60.0169 103.877 60.0697C103.972 60.2005 104.059 60.3313 104.146 60.4705C104.172 60.5143 104.207 60.5665 104.233 60.6103C104.32 60.7584 104.407 60.9067 104.476 61.0633C104.494 61.1071 104.52 61.1503 104.537 61.1857C104.615 61.3513 104.685 61.5169 104.755 61.6825C104.772 61.7173 104.78 61.7521 104.789 61.7869C104.859 61.9699 104.92 62.1445 104.972 62.3275C104.972 62.3539 104.989 62.3797 104.989 62.4061C105.041 62.5981 105.085 62.7985 105.128 62.9989C105.128 63.0163 105.128 63.0427 105.128 63.0427C105.163 63.2515 105.198 63.4699 105.215 63.6877C105.233 63.8797 105.241 64.0801 105.241 64.2805L105.311 64.2979Z" fill="#007B87"/>
</svg>
