<svg width="90" height="93" viewBox="0 0 90 93" fill="none" xmlns="http://www.w3.org/2000/svg">
<g clip-path="url(#clip0_4960_417004)">
<path d="M44.9294 90.2269C43.7678 90.2308 41.2434 89.2027 39.2697 88.19C38.7095 87.9006 38.1492 87.6027 37.589 87.3048C35.891 86.3939 34.124 85.449 32.3927 84.8895C30.6701 84.3384 28.6903 84.0881 26.7794 83.8461C26.1424 83.7625 25.5055 83.6876 24.8771 83.5955C22.2344 83.2103 19.9091 82.5499 19.0811 81.9616C18.2618 81.3733 16.9043 79.382 15.7004 77.0048C15.4146 76.4404 15.1373 75.8674 14.8601 75.2944C14.0283 73.5583 13.1619 71.771 12.0901 70.3098C11.0184 68.8486 9.55975 67.4915 8.15288 66.1686C7.6868 65.7333 7.22073 65.298 6.77184 64.854C5.17493 63.309 3.40423 61.2505 3.0478 60.1553C2.73486 59.197 2.81284 56.7897 3.24288 54.1671C3.34406 53.55 3.46242 52.9243 3.57215 52.2901C3.91858 50.3959 4.28202 48.4417 4.27597 46.6343C4.26993 44.8269 3.90203 42.8752 3.53434 40.9833C3.41179 40.3584 3.29785 39.7335 3.19251 39.1086C2.74495 36.4889 2.65086 34.0822 2.95739 33.1218C3.31506 32.0157 5.07198 29.954 6.64988 28.3897C7.1044 27.9428 7.56755 27.5044 8.03067 27.0574C9.42869 25.7336 10.8696 24.3582 11.9316 22.8985C12.9936 21.4302 13.848 19.6371 14.6681 17.8955C14.9415 17.3206 15.2149 16.7458 15.497 16.1795C16.6849 13.7943 18.0291 11.7939 18.8445 11.2002C19.6599 10.6064 21.9893 9.93046 24.6294 9.53617C25.2486 9.43987 25.885 9.36065 26.5128 9.27289C28.4306 9.01807 30.4087 8.75448 32.1362 8.19192C33.8637 7.62937 35.6157 6.6727 37.3076 5.7505C37.8659 5.44883 38.4241 5.13859 38.9824 4.84549C40.9578 3.81098 43.4667 2.77469 44.6283 2.7708C45.7898 2.76692 48.3056 3.79497 50.2879 4.80767C50.8481 5.09704 51.4084 5.39497 51.9686 5.6929C53.6753 6.60373 55.4336 7.54866 57.1649 8.10821C58.8962 8.6592 60.8759 8.90955 62.7954 9.15154C63.4324 9.23507 64.0607 9.31006 64.6891 9.40218C67.3318 9.78737 69.6571 10.4392 70.4765 11.0275C71.2958 11.6158 72.6533 13.6071 73.8572 15.9843C74.143 16.5487 74.4203 17.1217 74.6975 17.7033C75.5293 19.4308 76.3957 21.2181 77.4674 22.6793C78.5392 24.1319 79.9892 25.4976 81.3875 26.8121C81.8536 27.2559 82.3283 27.6912 82.7771 28.1351C84.6848 29.9961 86.1797 31.8841 86.5012 32.8424C86.8142 33.8007 86.7362 36.208 86.3061 38.8306C86.205 39.4562 86.0866 40.0819 85.9769 40.7076C85.6304 42.5932 85.2756 44.5474 85.2816 46.3548C85.2877 48.1622 85.6556 50.1139 86.0146 51.9972C86.1372 52.6221 86.2511 53.2556 86.3565 53.872C86.804 56.4917 86.8981 58.8983 86.5916 59.8587C86.2764 60.8192 84.7943 62.7172 82.8991 64.5909C82.4446 65.0378 81.9814 65.4762 81.5097 65.9232C80.1203 67.247 78.6794 68.6138 77.6174 70.0735C76.5553 71.5333 75.7095 73.3263 74.8808 75.068C74.6074 75.6514 74.334 76.2262 74.052 76.7925C72.864 79.1777 71.5198 81.1781 70.7045 81.7719C69.8805 82.3656 67.5596 83.0415 64.9282 83.4444C64.3004 83.5407 63.664 83.6285 63.0276 83.7077C61.1183 83.9625 59.1403 84.2261 57.4214 84.7886C55.6939 85.3512 53.9332 86.3079 52.2328 87.2387C51.6745 87.5403 51.1163 87.8506 50.558 88.1351C48.5825 89.1611 46.0736 90.2059 44.9121 90.2098L44.9294 90.2269ZM44.6397 3.61878C43.9084 3.62123 41.8715 4.30474 39.3893 5.59792C38.8396 5.88243 38.2813 6.19267 37.7231 6.49434C35.9968 7.43379 34.2019 8.41629 32.4056 9.00478C30.6008 9.59329 28.5797 9.86559 26.6275 10.1291C25.9997 10.2169 25.3719 10.296 24.7613 10.3923C22.0008 10.8127 19.9553 11.4705 19.3545 11.9008C18.7622 12.3311 17.5119 14.0742 16.2726 16.571C15.9992 17.1287 15.7258 17.7035 15.4524 18.2783C14.6151 20.0542 13.7436 21.8817 12.6388 23.4186C11.534 24.9471 10.0588 26.3482 8.63509 27.6978C8.17194 28.1362 7.70879 28.5746 7.26285 29.013C5.27328 30.9726 4.00566 32.6986 3.78428 33.3932C3.56293 34.0963 3.57869 36.2377 4.04387 38.9772C4.14918 39.5936 4.26309 40.21 4.38564 40.8349C4.75345 42.761 5.13009 44.7555 5.13639 46.64C5.14269 48.5245 4.7794 50.5215 4.42448 52.45C4.30612 53.0757 4.19633 53.6928 4.09515 54.3099C3.63971 57.0525 3.63829 59.2025 3.87292 59.8955C4.09894 60.5886 5.37808 62.3061 7.38071 64.2524C7.82957 64.6877 8.28704 65.1231 8.75309 65.5498C10.1859 66.8984 11.6704 68.2897 12.794 69.8106C13.909 71.3316 14.7927 73.1618 15.6418 74.932C15.9191 75.505 16.1963 76.0694 16.4735 76.6339C17.7294 79.1223 18.9914 80.857 19.5865 81.2833C20.1816 81.7181 22.2401 82.3622 25.0034 82.7642C25.6232 82.8563 26.2601 82.9313 26.8885 83.0148C28.8424 83.2653 30.8566 83.5155 32.6568 84.092C34.4655 84.6684 36.2584 85.6303 37.9909 86.5668C38.5512 86.8647 39.1028 87.1627 39.6544 87.4521C42.1453 88.7286 44.1866 89.3985 44.918 89.396C45.6493 89.3936 47.6862 88.7101 50.1684 87.4169C50.7181 87.1324 51.2677 86.8307 51.826 86.5291C53.5608 85.581 55.3472 84.6071 57.1521 84.0186C58.9483 83.4301 60.9608 83.1578 62.913 82.9029C63.5494 82.8151 64.1772 82.7359 64.7964 82.6396C67.5569 82.2192 69.6024 81.5614 70.1946 81.1226C70.7869 80.6923 72.0372 78.9492 73.2765 76.4524C73.5585 75.8947 73.8319 75.3199 74.0967 74.7365C74.934 72.9692 75.8055 71.1332 76.9103 69.6048C78.0151 68.0763 79.4817 66.6838 80.9054 65.3342C81.3686 64.8958 81.8317 64.4574 82.2862 64.0104C84.2672 62.0594 85.5348 60.3248 85.7648 59.6302C85.9862 58.9271 85.9704 56.7857 85.5052 54.0462C85.3999 53.4298 85.2774 52.8049 85.1634 52.18C84.7956 50.2539 84.419 48.2679 84.4127 46.3834C84.4064 44.4989 84.7697 42.5105 85.1246 40.582C85.243 39.9563 85.3528 39.3306 85.4539 38.7135C85.9094 35.9709 85.9108 33.8295 85.6762 33.1279C85.4502 32.4348 84.171 30.7088 82.1684 28.771C81.7195 28.3357 81.2535 27.9004 80.7874 27.4565C79.3546 26.1165 77.8701 24.7252 76.7551 23.2042C75.6401 21.6832 74.7564 19.8616 73.9073 18.0914C73.63 17.5184 73.3528 16.9454 73.0755 16.381C71.8197 13.9011 70.5577 12.1664 69.9626 11.7316C69.3675 11.3053 67.3176 10.6611 64.5543 10.2592C63.9345 10.1671 63.3062 10.0921 62.6778 10.0085C60.7239 9.75808 58.7011 9.50787 56.8923 8.92288C55.0835 8.34645 53.2907 7.38451 51.5496 6.44809C50.9893 6.15016 50.4376 5.8522 49.886 5.56281C47.3952 4.28627 45.3538 3.61639 44.6225 3.61884L44.6397 3.61878Z" fill="white"/>
<path d="M44.9382 92.8395C42.4516 92.8478 39.3573 91.205 36.3664 89.6217C34.6081 88.6854 32.9446 87.8087 31.5923 87.3763C30.24 86.944 28.3721 86.6933 26.4009 86.4343C23.0439 85.9916 19.5664 85.5321 17.5482 84.0826C15.53 82.6332 13.9966 79.4947 12.5066 76.4588C11.6316 74.68 10.8086 72.9953 9.97017 71.8503C9.13178 70.7138 7.76801 69.4164 6.32658 68.0507C3.87525 65.7204 1.32905 63.3219 0.555424 60.9689C-0.218201 58.6159 0.389791 55.179 0.980948 51.8535C1.32718 49.8993 1.65657 48.0565 1.65184 46.6432C1.64711 45.2298 1.3054 43.3893 0.946111 41.4375C0.332722 38.116 -0.298247 34.6833 0.459622 32.3251C1.21749 29.967 3.73896 27.543 6.18327 25.2049C7.61554 23.8296 8.9706 22.523 9.80137 21.381C10.6321 20.239 11.4439 18.5488 12.3069 16.7557C13.768 13.7099 15.2889 10.5612 17.2974 9.09825C19.3058 7.63534 22.7802 7.1526 26.1342 6.68739C28.1036 6.41527 29.9698 6.15205 31.3192 5.71068C32.6685 5.26931 34.3261 4.38149 36.0782 3.43339C39.0584 1.83017 42.1416 0.166658 44.6282 0.158342C47.1147 0.150025 50.209 1.79288 53.1999 3.37612C54.9583 4.31248 56.6218 5.1892 57.974 5.62153C59.3263 6.05386 61.1942 6.30459 63.1654 6.56354C66.5224 7.0063 70 7.46579 72.0182 8.91523C74.0363 10.3647 75.5697 13.5032 77.0511 16.5305C77.9261 18.3179 78.7491 20.0026 79.5875 21.139C80.4259 22.2755 81.7897 23.5729 83.2311 24.9386C85.6824 27.2689 88.2286 29.6674 89.0023 32.0204C89.7759 34.3734 89.1679 37.8104 88.5767 41.1359C88.2305 43.09 87.9011 44.9328 87.9059 46.3461C87.9106 47.7595 88.2523 49.6 88.6116 51.5518C89.225 54.8733 89.8559 58.3061 89.0981 60.6642C88.3402 63.0223 85.8187 65.4463 83.3744 67.7844C81.9422 69.1597 80.5871 70.4663 79.7563 71.6083C78.9256 72.7504 78.1139 74.4491 77.2508 76.2337C75.7897 79.2794 74.2774 82.4282 72.2689 83.8911C70.2605 85.354 66.7861 85.8367 63.4321 86.3019C61.4627 86.574 59.5965 86.8372 58.2471 87.2786C56.8978 87.72 55.2402 88.6078 53.4881 89.5559C50.5079 91.1591 47.4247 92.8226 44.9381 92.831L44.9382 92.8395ZM44.631 1.00635C42.3596 1.01395 39.242 2.69471 36.485 4.17725C34.6986 5.1426 33.0067 6.04767 31.5886 6.51497C30.1705 6.98226 28.2699 7.2456 26.2489 7.52646C23.1529 7.95654 19.6355 8.44799 17.7987 9.78184C15.9619 11.1157 14.4325 14.3073 13.0824 17.1128C12.2023 18.9403 11.3735 20.6648 10.4999 21.8669C9.62636 23.0776 8.24554 24.4014 6.77895 25.8025C4.52334 27.9687 1.96755 30.4185 1.27782 32.5708C0.579494 34.7232 1.22781 38.1987 1.78872 41.2634C2.15673 43.2494 2.50719 45.1327 2.51217 46.6232C2.51716 48.1136 2.1793 49.9992 1.82459 51.9877C1.27559 55.0561 0.659138 58.5359 1.37185 60.6835C2.08456 62.8312 4.64808 65.2638 6.91812 67.4148C8.39406 68.8061 9.78373 70.1292 10.6653 71.3254C11.547 72.5303 12.3873 74.2492 13.2796 76.0622C14.6484 78.8672 16.2077 82.0399 18.0448 83.3614C19.8905 84.683 23.4025 85.1509 26.5099 85.5603C28.5241 85.8276 30.4264 86.0782 31.8562 86.536C33.286 86.9938 34.9754 87.8875 36.7682 88.8409C39.535 90.305 42.6638 91.9649 44.9352 91.9573C47.2066 91.9497 50.3243 90.2689 53.0812 88.7864C54.8676 87.821 56.5595 86.9159 57.9776 86.4486C59.3957 85.9813 61.3049 85.718 63.3173 85.4371C66.4133 85.0071 69.9307 84.5156 71.7675 83.1818C73.6043 81.8479 75.1338 78.6649 76.4838 75.8508C77.3639 74.0233 78.1927 72.2988 79.0663 71.0967C79.9399 69.8945 81.3207 68.5622 82.7872 67.1525C85.0428 64.9864 87.59 62.5366 88.2884 60.3842C88.9867 58.2319 88.3384 54.7563 87.7775 51.6916C87.4094 49.697 87.059 47.8223 87.054 46.3319C87.049 44.8414 87.3869 42.9558 87.7416 40.9674C88.2906 37.899 88.907 34.4192 88.1943 32.2715C87.4816 30.1239 84.9181 27.6912 82.6481 25.5402C81.1721 24.1489 79.7825 22.8259 78.9008 21.621C78.0192 20.4162 77.1788 18.6973 76.2866 16.8843C74.9178 14.0793 73.3584 10.9066 71.5214 9.58503C69.6757 8.2635 66.1637 7.79556 63.0563 7.38622C61.0421 7.11885 59.1397 6.86824 57.7099 6.41047C56.2802 5.9527 54.5908 5.05894 52.798 4.10556C50.0312 2.64149 46.9024 0.98162 44.631 0.989217L44.631 1.00635Z" fill="white"/>
<path d="M9.5577 33.3308L11.2865 33.1622L12.1247 31.6518L12.8269 33.2342L14.5316 33.5625L13.2362 34.7147L13.4485 36.4271L11.9485 35.5584L10.3764 36.2918L10.7407 34.6031L9.55773 33.3393L9.5577 33.3308ZM7.41883 42.1007L9.05165 41.5214L9.50207 39.8495L10.5563 41.2165L12.2854 41.1251L11.3007 42.5503L11.917 44.1672L10.2548 43.6759L8.90761 44.7597L8.8588 43.0296L7.40157 42.0837L7.41883 42.1007ZM7.44903 51.129L8.8999 50.1734L8.93714 48.4429L10.2916 49.5177L11.9504 49.0153L11.345 50.6363L12.3392 52.0549L10.6095 51.975L9.56443 53.3491L9.10284 51.6803L7.46618 51.1118L7.44903 51.129ZM9.64654 59.8931L10.821 58.6214L10.4454 56.9352L12.0224 57.658L13.5165 56.7793L13.3158 58.4931L14.6188 59.6366L12.9163 59.9764L12.2247 61.5634L11.3765 60.0586L9.64657 59.9016L9.64654 59.8931ZM13.8892 67.8794L14.7274 66.369L13.9564 64.8211L15.6611 65.1495L16.896 63.9376L17.1082 65.6501L18.651 66.4501L17.079 67.1834L16.7921 68.889L15.6092 67.6252L13.8892 67.8794ZM75.82 67.6722L74.0984 67.4296L72.9239 68.7013L72.6257 66.9977L71.0487 66.2748L72.5862 65.4645L72.7869 63.7507L74.0299 64.9543L75.7324 64.6145L74.9718 66.1675L75.82 67.6722ZM80.0092 59.6577L78.2803 59.8263L77.4422 61.3367L76.74 59.7543L75.0353 59.426L76.3306 58.2738L76.1184 56.5614L77.6184 57.4301L79.1905 56.6967L78.8262 58.3854L80.0092 59.6492L80.0092 59.6577ZM82.148 50.8792L80.5152 51.4586L80.0648 53.1304L79.0105 51.7634L77.2814 51.8548L78.2661 50.4296L77.6498 48.8127L79.312 49.304L80.6592 48.2202L80.7081 49.9503L82.1653 50.8963L82.148 50.8792ZM82.1178 41.8509L80.6669 42.8066L80.6297 44.537L79.2753 43.4622L77.6164 43.9646L78.2219 42.3436L77.2277 40.925L78.9573 41.0049L80.0024 39.6309L80.464 41.2997L82.1007 41.8681L82.1178 41.8509ZM79.9203 33.0954L78.7459 34.3671L79.1215 36.0533L77.5445 35.3305L76.0504 36.2092L76.2511 34.4954L74.9481 33.3519L76.6505 33.0121L77.3422 31.4251L78.1904 32.9299L79.9203 33.0869L79.9203 33.0954Z" fill="white"/>
<path d="M44.8878 77.6522C27.6284 77.7099 13.5401 63.7776 13.4826 46.5947C13.4252 29.4119 27.42 15.3857 44.6794 15.3279C61.9388 15.2702 76.0271 29.2025 76.0846 46.3854C76.142 63.5682 62.1472 77.5944 44.8878 77.6522ZM44.6808 15.7562C27.6537 15.8132 13.8562 29.6503 13.9128 46.5933C13.9695 63.5363 27.8679 77.2808 44.8864 77.2239C61.9049 77.167 75.7111 63.3298 75.6544 46.3868C75.5977 29.4438 61.6993 15.6993 44.6808 15.7562Z" fill="white"/>
<path d="M40.5354 52.3894L39.0308 47.5804L30.0054 47.6106L28.533 52.4295L22.2521 52.4505L30.8225 26.9642L38.5574 26.9383L47.2981 52.3667L40.5354 52.3894ZM34.4647 32.9224L31.4343 42.6805L37.5603 42.66L34.4647 32.9224Z" fill="white"/>
<path d="M60.754 41.8973L60.7778 48.9983L56.0628 49.014L56.0391 41.913L48.9495 41.9367L48.9339 37.2856L56.0235 37.2618L55.9998 30.1609L60.7147 30.1451L60.7384 37.2461L67.8281 37.2224L67.8436 41.8736L60.754 41.8973Z" fill="white"/>
<path d="M25.833 63.2736L25.4156 61.9388L22.912 61.9472L22.5035 63.2848L20.7571 63.2906L23.1423 56.2078L25.2931 56.2006L27.7257 63.2673L25.8416 63.2736L25.833 63.2736ZM24.1459 57.8661L23.3032 60.5755L25.0066 60.5698L24.1459 57.8661Z" fill="white"/>
<path d="M29.2148 63.3646C28.647 63.3665 28.25 62.9739 28.2482 62.4428C28.2464 61.9118 28.6409 61.525 29.2087 61.5231C29.7765 61.5212 30.1822 61.9139 30.1839 62.4364C30.1857 62.9588 29.7999 63.3627 29.2148 63.3646Z" fill="white"/>
<path d="M37.6288 63.2337L37.5698 58.4545L36.1404 63.2387L34.5488 63.244L33.0961 58.4695L33.0604 63.249L31.4172 63.2545L31.6172 56.1789L33.8713 56.1714L35.3849 61.1513L36.8824 56.1613L39.1193 56.1538L39.3752 63.2279L37.6288 63.2337Z" fill="white"/>
<path d="M41.5615 63.3236C40.9937 63.3255 40.5966 62.9329 40.5949 62.4018C40.5931 61.8708 40.9875 61.484 41.5554 61.4821C42.1232 61.4802 42.5289 61.8729 42.5306 62.3954C42.5323 62.9178 42.1465 63.3217 41.5615 63.3236Z" fill="white"/>
<path d="M50.6452 62.745C50.1645 63.0549 49.4595 63.1943 48.6422 63.1971L45.7859 63.2066L45.7622 56.1318L48.4894 56.1227C49.1261 56.1206 49.8748 56.1952 50.3145 56.4763C50.7543 56.7575 51.0827 57.2018 51.085 57.9127C51.0874 58.6236 50.642 59.2076 49.877 59.4071L49.8771 59.4328C50.867 59.5922 51.4801 60.2668 51.483 61.1319C51.4857 61.937 51.1088 62.4351 50.6367 62.7536L50.6452 62.745ZM49.0278 57.5941C48.8639 57.4833 48.6401 57.4413 48.3906 57.4421L47.5303 57.445L47.5353 58.9524L48.3957 58.9495C48.6452 58.9487 48.8773 58.9051 49.0318 58.7847C49.1862 58.6728 49.3232 58.4754 49.3223 58.1927C49.3213 57.9101 49.2002 57.7135 49.0278 57.6027L49.0278 57.5941ZM49.2863 60.2913C49.0967 60.1892 48.8384 60.1386 48.5029 60.1398L47.5393 60.143L47.5452 61.9074L48.5088 61.9042C48.8443 61.903 49.1023 61.8594 49.2912 61.7474C49.5144 61.6267 49.6771 61.3863 49.6759 61.018C49.6746 60.6497 49.5104 60.4276 49.2863 60.2913Z" fill="white"/>
<path d="M52.5056 63.1842L52.4819 56.1094L57.274 56.0933L57.2785 57.4638L54.2588 57.4739L54.2633 58.8186L57.0766 58.8092L57.0812 60.2053L54.268 60.2147L54.2731 61.765L57.4047 61.7545L57.4095 63.1678L52.5056 63.1842Z" fill="white"/>
<path d="M62.7785 58.0792C62.3643 57.7123 61.5544 57.3467 60.9177 57.3488C60.2811 57.3509 59.9462 57.5405 59.9475 57.9345C59.9488 58.3285 60.3881 58.4812 60.5948 58.5576C60.8102 58.6425 61.6715 58.9223 61.8954 58.9986C62.0849 59.0751 62.4812 59.2279 62.8005 59.5095C63.1283 59.7739 63.4653 60.201 63.4678 60.9633C63.4704 61.7256 63.1281 62.275 62.6905 62.6276C62.2701 62.9887 61.6602 63.2649 60.6364 63.2683C59.6126 63.2717 58.5186 62.8728 57.88 62.2754L58.6844 60.9879C59.1331 61.3804 59.9604 61.7973 60.6573 61.795C61.3541 61.7927 61.7061 61.5688 61.7048 61.1662C61.7034 60.7637 61.2469 60.6025 60.9971 60.5091C60.7473 60.4243 60.0324 60.1783 59.8515 60.1103C59.6965 60.0595 59.2314 59.8897 58.8776 59.5997C58.5326 59.3182 58.2041 58.8653 58.2015 58.0945C58.199 57.3236 58.6187 56.7655 59.0478 56.4643C59.4684 56.1716 59.9753 55.9558 60.9303 55.9526C62.0487 55.9489 63.0226 56.4595 63.4626 56.8435L62.787 58.062L62.7785 58.0792Z" fill="white"/>
<path d="M67.4999 57.4379L67.519 63.1337L65.7467 63.1396L65.7276 57.4438L63.8005 57.4503L63.7959 56.0713L69.4138 56.0525L69.4184 57.4315L67.4913 57.4379L67.4999 57.4379Z" fill="white"/>
<path d="M13.9615 27.6719L14.7719 28.1831L15.6619 26.7668L16.231 27.1247L15.3409 28.5409L16.4617 29.2395L16.0167 29.9519L12.9389 28.0264L14.4023 25.7089L14.9713 26.0668L13.9615 27.6719Z" fill="white"/>
<path d="M15.1302 24.7384L15.6355 24.0686L18.5421 26.243L18.0368 26.9128L15.1302 24.7384Z" fill="white"/>
<path d="M18.8154 20.4172L21.4992 22.8665L21.0363 23.3734L18.1795 23.2116L19.8105 24.6965L19.2447 25.3065L16.5609 22.8573L17.0324 22.3504L19.8806 22.5122L18.2496 21.0273L18.8154 20.4172Z" fill="white"/>
<path d="M23.6753 19.9725L22.3797 21.0475L22.6319 21.8518L21.9713 22.4022L20.8831 18.5857L21.5266 18.0525L25.1114 19.7964L24.4337 20.364L23.6839 19.9725L23.6753 19.9725ZM23.0633 19.6491L21.7275 18.9512L22.1797 20.3886L23.0633 19.6491Z" fill="white"/>
<path d="M26.5307 14.5921L28.4767 17.6605L27.8929 18.0308L25.1798 17.1319L26.3561 18.9952L25.6521 19.4344L23.7061 16.366L24.2985 15.9957L27.0116 16.8945L25.8353 15.0312L26.5393 14.5921L26.5307 14.5921Z" fill="white"/>
<path d="M28.5217 15.5701C28.0624 14.5781 28.4976 13.5145 29.5285 13.0486C30.0954 12.7897 30.6718 12.7706 31.1544 13.0089L30.8727 13.6865C30.5367 13.5334 30.1926 13.5346 29.8662 13.6898C29.2477 13.9745 29.0089 14.6092 29.2949 15.2249C29.5808 15.8406 30.2183 16.0783 30.8368 15.7936C31.1632 15.6383 31.386 15.3806 31.488 15.0206L32.1857 15.2495C32.0498 15.7724 31.6727 16.2019 31.0971 16.4608C30.0749 16.9353 28.981 16.5707 28.5218 15.5787L28.5217 15.5701Z" fill="white"/>
<path d="M32.0122 12.1069L32.8027 11.8216L34.053 15.2263L33.2624 15.5116L32.0122 12.1069Z" fill="white"/>
<path d="M37.2992 13.4852L35.6659 13.8932L35.5482 14.7244L34.7144 14.9328L35.3982 11.0247L36.2063 10.825L38.6686 13.9345L37.809 14.1515L37.3078 13.4766L37.2992 13.4852ZM36.893 12.9384L35.9942 11.7337L35.7755 13.2162L36.893 12.9384Z" fill="white"/>
<path d="M38.8374 10.2763L39.6715 10.1622L40.0599 13.0816L41.8658 12.8443L41.9541 13.5207L39.3054 13.8721L38.8202 10.2764L38.8374 10.2763Z" fill="white"/>
<path d="M46.1171 13.0788L46.4592 12.4781C46.744 12.7255 47.1834 12.921 47.6223 12.9538C48.1214 12.995 48.336 12.8486 48.3524 12.6259C48.4104 11.9491 46.2605 12.2389 46.3765 10.8938C46.426 10.2769 46.9665 9.81258 47.9992 9.90334C48.4553 9.94465 48.9118 10.0887 49.2309 10.3275L48.9146 10.9367C48.5956 10.715 48.2596 10.5963 47.9326 10.5717C47.4335 10.5305 47.2276 10.7025 47.2111 10.9252C47.1531 11.5935 49.303 11.3122 49.187 12.6402C49.1374 13.24 48.5884 13.7129 47.5557 13.6307C46.9791 13.5812 46.4191 13.3604 46.1171 13.0873L46.1171 13.0788Z" fill="white"/>
<path d="M51.1956 11.0744L50.0506 10.8556L50.1774 10.1871L53.2852 10.7848L53.1584 11.4533L52.0134 11.2344L51.4552 14.1228L50.6288 13.9628L51.187 11.083L51.1956 11.0744Z" fill="white"/>
<path d="M55.5542 15.2229L55.189 14.0507L55.1545 14.0508L54.4569 13.8219L54.1504 14.7822L53.3494 14.5279L54.4477 11.0725L55.9463 11.5471C56.8764 11.8352 57.3002 12.5019 57.0533 13.2736C56.8916 13.788 56.5054 14.0891 55.998 14.1422L56.4241 15.4941L55.5628 15.2229L55.5542 15.2229ZM55.6903 12.1818L55.0358 11.9784L54.6526 13.1788L55.3072 13.3822C55.7981 13.5347 56.1159 13.3795 56.2351 13.0108C56.3543 12.6335 56.1812 12.3343 55.6903 12.1732L55.6903 12.1818Z" fill="white"/>
<path d="M60.0837 16.3733L59.8018 16.991L57.2342 15.8347L58.7287 12.5321L61.2361 13.6629L60.9542 14.2719L59.2137 13.4898L58.8892 14.2018L60.4315 14.8989L60.1582 15.4909L58.6158 14.7937L58.2657 15.5571L60.0751 16.3648L60.0837 16.3733Z" fill="white"/>
<path d="M65.3997 16.0637L63.5087 19.1535L62.9225 18.7957L62.5259 15.9791L61.3794 17.8587L60.6724 17.4243L62.5634 14.3345L63.1583 14.6922L63.5548 17.5088L64.7014 15.6292L65.4083 16.0637L65.3997 16.0637Z" fill="white"/>
<path d="M67.5381 19.9032L68.142 20.3808L67.2166 21.5231C66.7176 21.5076 66.1834 21.2867 65.778 20.9626C64.8895 20.2461 64.7222 19.116 65.4162 18.2658C66.1017 17.4155 67.2542 17.3346 68.1514 18.0596C68.6518 18.4605 68.9287 18.9564 68.9391 19.4959L68.208 19.5412C68.1809 19.1559 68.0165 18.8652 67.7318 18.6349C67.1797 18.1913 66.5088 18.2535 66.0719 18.7946C65.6435 19.3185 65.7145 19.9949 66.258 20.4299C66.4392 20.5749 66.6288 20.6771 66.8698 20.7191L67.5381 19.8946L67.5381 19.9032Z" fill="white"/>
<path d="M70.3641 21.0495L69.5527 20.2214L70.0414 19.7401L72.2601 22.0025L71.7713 22.4838L70.9598 21.6556L68.8502 23.7098L68.2632 23.1122L70.3728 21.058L70.3641 21.0495Z" fill="white"/>
<path d="M75.0419 25.5228L72.1499 27.7166L71.6401 27.0502L72.8243 26.1469L71.822 24.8398L70.6377 25.7431L70.1279 25.0767L73.0199 22.8829L73.5297 23.5493L72.3884 24.4182L73.3908 25.7253L74.5321 24.8564L75.0419 25.5228Z" fill="white"/>
<path d="M24.928 75.6638C25.5013 74.7283 26.6276 74.5018 27.5931 75.0896C28.1276 75.4133 28.4561 75.8833 28.5353 76.4141L27.8131 76.5621C27.7517 76.194 27.5615 75.912 27.2511 75.7246C26.6735 75.3668 26.003 75.5232 25.6522 76.1068C25.2928 76.6904 25.4584 77.3494 26.0446 77.6986C26.355 77.886 26.6906 77.9191 27.0516 77.8066L27.2518 78.5083C26.7362 78.6899 26.1682 78.6147 25.6336 78.2824C24.6681 77.6946 24.3547 76.5908 24.928 75.6638Z" fill="white"/>
<path d="M28.5147 77.8013C28.9588 76.8234 30.0501 76.4343 31.0927 76.9019C32.1353 77.3695 32.5862 78.4301 32.1421 79.4166C31.698 80.4031 30.6067 80.7836 29.5555 80.316C28.5043 79.8485 28.0706 78.7793 28.5061 77.8014L28.5147 77.8013ZM31.3667 79.068C31.6485 78.4418 31.3969 77.8088 30.8023 77.5453C30.2078 77.2818 29.572 77.5151 29.2901 78.1414C29.0083 78.7676 29.2599 79.392 29.8545 79.6641C30.449 79.9276 31.0848 79.6942 31.3667 79.068Z" fill="white"/>
<path d="M35.8348 82.4282L36.4301 80.3363L34.9034 81.7632L34.5417 81.6617L34.0018 79.6935L33.4149 81.734L32.6571 81.5224L33.6521 78.0416L34.3238 78.2277L35.0119 80.7607L36.9245 78.9642L37.5875 79.1504L36.6012 82.6312L35.8434 82.411L35.8348 82.4282Z" fill="white"/>
<path d="M41.439 83.3686L41.7071 81.2178L40.4221 82.8581L40.0434 82.8079L39.2027 80.9521L38.9344 83.06L38.1512 82.9599L38.6037 79.3695L39.2923 79.4529L40.3585 81.8561L41.9691 79.7951L42.649 79.8785L42.2051 83.4688L41.4218 83.3686L41.439 83.3686Z" fill="white"/>
<path d="M43.7849 79.866L44.6281 79.8803L44.5628 83.5036L43.7196 83.4893L43.7849 79.866Z" fill="white"/>
<path d="M46.5661 80.5167L45.4049 80.5891L45.3595 79.904L48.5249 79.6964L48.5702 80.3815L47.409 80.4539L47.5995 83.3826L46.7565 83.4368L46.566 80.5081L46.5661 80.5167Z" fill="white"/>
<path d="M53.1292 82.5764L52.7091 80.4451L52.0016 82.4089L51.6318 82.4786L50.2503 80.9672L50.653 83.0558L49.8792 83.204L49.1876 79.6432L49.8668 79.5124L51.6371 81.4679L52.5236 78.9982L53.2028 78.8674L53.9115 82.4196L53.1377 82.5678L53.1292 82.5764Z" fill="white"/>
<path d="M57.837 80.4446L58.0542 81.0863L55.3816 81.986L54.2172 78.5467L56.8298 77.6729L57.047 78.3146L55.2337 78.9202L55.4857 79.6645L57.0841 79.1281L57.2927 79.7441L55.6856 80.2805L55.955 81.0762L57.837 80.4446Z" fill="white"/>
<path d="M60.7128 75.9126L62.2724 79.1793L61.6539 79.4725L59.0689 78.2649L60.0219 80.2489L59.2746 80.6025L57.7064 77.3359L58.3335 77.034L60.9099 78.2416L59.9569 76.2577L60.7042 75.904L60.7128 75.9126Z" fill="white"/>
<path d="M62.6731 75.5199L61.6858 76.1399L61.3225 75.5586L64.0097 73.8709L64.373 74.4521L63.3857 75.0721L64.9598 77.5593L64.2472 78.0071L62.6731 75.5199Z" fill="white"/>
</g>
<defs>
<clipPath id="clip0_4960_417004">
<rect width="89.2573" height="92.6903" fill="white" transform="translate(0 0.298828) rotate(-0.191632)"/>
</clipPath>
</defs>
</svg>

